# xmcd CD database file
#
# Track frame offsets:
#	182
#	11720
#	23477
#	36967
#	50387
#	58827
#	69195
#	81507
#	92482
#	106447
#	115655
#	129070
#	145052
#	156647
#	167640
#	182612
#	197020
#	211720
#
# Disc length: 3084 seconds
#
# Revision: 2
# Processed by: cddbd v1.4b41PL1 Copyright (c) Steve Scherf et al.
# Submitted via: Feurio! 1.50.2ß - http://www.feurio.com
#
DISCID=e90c0a12
DTITLE=Benny Goodman and His Orchestra - Compltete Camel caravan Shows
DYEAR=1900
DGENRE=
TTITLE0=Russian Lullaby
TTITLE1=I`ve Got A Pocketfull Of Dreams
TTITLE2=Don`t Let The Moon Get Away
TTITLE3=Motten Swing
TTITLE4=Oh! Lady Be Good 
TTITLE5=Margie
TTITLE6=Stardust
TTITLE7=China Stomp
TTITLE8=Bumble Bee Stomp
TTITLE9=Goodbye
TTITLE10=Rose Of The Rio Grande
TTITLE11=Lullaby In Rhythm
TTITLE12=The Yam
TTITLE13=You`re Blaze
TTITLE14=Ciri-Biri-Bin
TTITLE15=The Shiek Of Araby
TTITLE16=Sometimes I`m Happy
TTITLE17=One O`Clock Jump
EXTD=
EXTT0=
EXTT1=
EXTT2=
EXTT3=
EXTT4=
EXTT5=
EXTT6=
EXTT7=
EXTT8=
EXTT9=
EXTT10=
EXTT11=
EXTT12=
EXTT13=
EXTT14=
EXTT15=
EXTT16=
EXTT17=
PLAYORDER=
